<svg width="69" height="17" viewBox="0 0 69 17" fill="none" xmlns="http://www.w3.org/2000/svg">
<path d="M1.51562 0.203125H3.74805L7.03516 9.59863L10.3223 0.203125H12.5547L7.93164 13H6.13867L1.51562 0.203125ZM0.311523 0.203125H2.53516L2.93945 9.36133V13H0.311523V0.203125ZM11.5352 0.203125H13.7676V13H11.1309V9.36133L11.5352 0.203125ZM18.7422 11.9277L21.2646 3.49023H23.9805L20.1572 14.4326C20.0752 14.6729 19.9639 14.9307 19.8232 15.2061C19.6885 15.4814 19.5039 15.7422 19.2695 15.9883C19.041 16.2402 18.751 16.4453 18.3994 16.6035C18.0537 16.7617 17.6289 16.8408 17.125 16.8408C16.8848 16.8408 16.6885 16.8262 16.5361 16.7969C16.3838 16.7676 16.2021 16.7266 15.9912 16.6738V14.8193C16.0557 14.8193 16.123 14.8193 16.1934 14.8193C16.2637 14.8252 16.3311 14.8281 16.3955 14.8281C16.7295 14.8281 17.002 14.79 17.2129 14.7139C17.4238 14.6377 17.5938 14.5205 17.7227 14.3623C17.8516 14.21 17.9541 14.0107 18.0303 13.7646L18.7422 11.9277ZM17.6875 3.49023L19.7529 10.3809L20.1133 13.0615L18.3906 13.2461L14.9717 3.49023H17.6875ZM37.8584 10.9434V13H31.416V10.9434H37.8584ZM32.2686 0.203125V13H29.6318V0.203125H32.2686ZM38.8076 8.3418V8.15723C38.8076 7.45996 38.9072 6.81836 39.1064 6.23242C39.3057 5.64062 39.5957 5.12793 39.9766 4.69434C40.3574 4.26074 40.8262 3.92383 41.3828 3.68359C41.9395 3.4375 42.5781 3.31445 43.2988 3.31445C44.0195 3.31445 44.6611 3.4375 45.2236 3.68359C45.7861 3.92383 46.2578 4.26074 46.6387 4.69434C47.0254 5.12793 47.3184 5.64062 47.5176 6.23242C47.7168 6.81836 47.8164 7.45996 47.8164 8.15723V8.3418C47.8164 9.0332 47.7168 9.6748 47.5176 10.2666C47.3184 10.8525 47.0254 11.3652 46.6387 11.8047C46.2578 12.2383 45.7891 12.5752 45.2324 12.8154C44.6758 13.0557 44.0371 13.1758 43.3164 13.1758C42.5957 13.1758 41.9541 13.0557 41.3916 12.8154C40.835 12.5752 40.3633 12.2383 39.9766 11.8047C39.5957 11.3652 39.3057 10.8525 39.1064 10.2666C38.9072 9.6748 38.8076 9.0332 38.8076 8.3418ZM41.3389 8.15723V8.3418C41.3389 8.74023 41.374 9.1123 41.4443 9.45801C41.5146 9.80371 41.626 10.1084 41.7783 10.3721C41.9365 10.6299 42.1416 10.832 42.3936 10.9785C42.6455 11.125 42.9531 11.1982 43.3164 11.1982C43.668 11.1982 43.9697 11.125 44.2217 10.9785C44.4736 10.832 44.6758 10.6299 44.8281 10.3721C44.9805 10.1084 45.0918 9.80371 45.1621 9.45801C45.2383 9.1123 45.2764 8.74023 45.2764 8.3418V8.15723C45.2764 7.77051 45.2383 7.40723 45.1621 7.06738C45.0918 6.72168 44.9775 6.41699 44.8193 6.15332C44.667 5.88379 44.4648 5.67285 44.2129 5.52051C43.9609 5.36816 43.6562 5.29199 43.2988 5.29199C42.9414 5.29199 42.6367 5.36816 42.3848 5.52051C42.1387 5.67285 41.9365 5.88379 41.7783 6.15332C41.626 6.41699 41.5146 6.72168 41.4443 7.06738C41.374 7.40723 41.3389 7.77051 41.3389 8.15723ZM55.3926 3.49023H57.6865V12.6836C57.6865 13.5508 57.4932 14.2861 57.1064 14.8896C56.7256 15.499 56.1924 15.959 55.5068 16.2695C54.8213 16.5859 54.0244 16.7441 53.1162 16.7441C52.7178 16.7441 52.2959 16.6914 51.8506 16.5859C51.4111 16.4805 50.9893 16.3164 50.585 16.0938C50.1865 15.8711 49.8525 15.5898 49.583 15.25L50.6992 13.7559C50.9922 14.0957 51.332 14.3594 51.7188 14.5469C52.1055 14.7402 52.5332 14.8369 53.002 14.8369C53.459 14.8369 53.8457 14.752 54.1621 14.582C54.4785 14.418 54.7217 14.1748 54.8916 13.8525C55.0615 13.5361 55.1465 13.1523 55.1465 12.7012V5.6875L55.3926 3.49023ZM48.9941 8.35938V8.1748C48.9941 7.44824 49.082 6.78906 49.2578 6.19727C49.4395 5.59961 49.6943 5.08691 50.0225 4.65918C50.3564 4.23145 50.7607 3.90039 51.2354 3.66602C51.71 3.43164 52.2461 3.31445 52.8438 3.31445C53.4766 3.31445 54.0068 3.43164 54.4346 3.66602C54.8623 3.90039 55.2139 4.23438 55.4893 4.66797C55.7646 5.0957 55.9785 5.60254 56.1309 6.18848C56.2891 6.76855 56.4121 7.4043 56.5 8.0957V8.5C56.4121 9.16211 56.2803 9.77734 56.1045 10.3457C55.9287 10.9141 55.6973 11.4121 55.4102 11.8398C55.123 12.2617 54.7656 12.5898 54.3379 12.8242C53.916 13.0586 53.4121 13.1758 52.8262 13.1758C52.2402 13.1758 51.71 13.0557 51.2354 12.8154C50.7666 12.5752 50.3652 12.2383 50.0312 11.8047C49.6973 11.3711 49.4395 10.8613 49.2578 10.2754C49.082 9.68945 48.9941 9.05078 48.9941 8.35938ZM51.5254 8.1748V8.35938C51.5254 8.75195 51.5635 9.11816 51.6396 9.45801C51.7158 9.79785 51.833 10.0996 51.9912 10.3633C52.1553 10.6211 52.3574 10.8232 52.5977 10.9697C52.8438 11.1104 53.1338 11.1807 53.4678 11.1807C53.9307 11.1807 54.3086 11.084 54.6016 10.8906C54.8945 10.6914 55.1143 10.4189 55.2607 10.0732C55.4072 9.72754 55.4922 9.3291 55.5156 8.87793V7.72656C55.5039 7.35742 55.4541 7.02637 55.3662 6.7334C55.2783 6.43457 55.1553 6.17969 54.9971 5.96875C54.8389 5.75781 54.6338 5.59375 54.3818 5.47656C54.1299 5.35938 53.8311 5.30078 53.4854 5.30078C53.1514 5.30078 52.8613 5.37695 52.6152 5.5293C52.375 5.67578 52.1729 5.87793 52.0088 6.13574C51.8506 6.39355 51.7305 6.69824 51.6484 7.0498C51.5664 7.39551 51.5254 7.77051 51.5254 8.1748ZM59.251 8.3418V8.15723C59.251 7.45996 59.3506 6.81836 59.5498 6.23242C59.749 5.64062 60.0391 5.12793 60.4199 4.69434C60.8008 4.26074 61.2695 3.92383 61.8262 3.68359C62.3828 3.4375 63.0215 3.31445 63.7422 3.31445C64.4629 3.31445 65.1045 3.4375 65.667 3.68359C66.2295 3.92383 66.7012 4.26074 67.082 4.69434C67.4688 5.12793 67.7617 5.64062 67.9609 6.23242C68.1602 6.81836 68.2598 7.45996 68.2598 8.15723V8.3418C68.2598 9.0332 68.1602 9.6748 67.9609 10.2666C67.7617 10.8525 67.4688 11.3652 67.082 11.8047C66.7012 12.2383 66.2324 12.5752 65.6758 12.8154C65.1191 13.0557 64.4805 13.1758 63.7598 13.1758C63.0391 13.1758 62.3975 13.0557 61.835 12.8154C61.2783 12.5752 60.8066 12.2383 60.4199 11.8047C60.0391 11.3652 59.749 10.8525 59.5498 10.2666C59.3506 9.6748 59.251 9.0332 59.251 8.3418ZM61.7822 8.15723V8.3418C61.7822 8.74023 61.8174 9.1123 61.8877 9.45801C61.958 9.80371 62.0693 10.1084 62.2217 10.3721C62.3799 10.6299 62.585 10.832 62.8369 10.9785C63.0889 11.125 63.3965 11.1982 63.7598 11.1982C64.1113 11.1982 64.4131 11.125 64.665 10.9785C64.917 10.832 65.1191 10.6299 65.2715 10.3721C65.4238 10.1084 65.5352 9.80371 65.6055 9.45801C65.6816 9.1123 65.7197 8.74023 65.7197 8.3418V8.15723C65.7197 7.77051 65.6816 7.40723 65.6055 7.06738C65.5352 6.72168 65.4209 6.41699 65.2627 6.15332C65.1104 5.88379 64.9082 5.67285 64.6562 5.52051C64.4043 5.36816 64.0996 5.29199 63.7422 5.29199C63.3848 5.29199 63.0801 5.36816 62.8281 5.52051C62.582 5.67285 62.3799 5.88379 62.2217 6.15332C62.0693 6.41699 61.958 6.72168 61.8877 7.06738C61.8174 7.40723 61.7822 7.77051 61.7822 8.15723Z" fill="white"/>
</svg>
